<mxfile host="app.diagrams.net" modified="2022-11-13T05:14:14.738Z" agent="5.0 (Macintosh; Intel Mac OS X 10_14_6) AppleWebKit/537.36 (KHTML, like Gecko) Chrome/106.0.0.0 Safari/537.36" etag="7l3IfYVan861KaJqfDOa" version="20.4.1" type="github">
  <diagram id="LJkzRXAmJUINt2x6cgg8" name="第 1 页">
    <mxGraphModel dx="2282" dy="1991" grid="1" gridSize="10" guides="1" tooltips="1" connect="1" arrows="1" fold="1" page="1" pageScale="1" pageWidth="827" pageHeight="1169" math="0" shadow="0">
      <root>
        <mxCell id="0" />
        <mxCell id="1" parent="0" />
        <mxCell id="_pXZU0co5bSJZ4ZsHfcl-16" value="" style="rounded=1;whiteSpace=wrap;html=1;strokeWidth=2;fillWeight=4;hachureGap=8;hachureAngle=45;fillColor=#f5f5f5;sketch=1;shadow=1;labelBackgroundColor=none;labelBorderColor=none;fontSize=20;fontColor=#333333;strokeColor=#666666;" vertex="1" parent="1">
          <mxGeometry x="880" y="80" width="200" height="240" as="geometry" />
        </mxCell>
        <mxCell id="_pXZU0co5bSJZ4ZsHfcl-15" value="" style="rounded=1;whiteSpace=wrap;html=1;strokeWidth=2;fillWeight=4;hachureGap=8;hachureAngle=45;fillColor=#f5f5f5;sketch=1;shadow=1;labelBackgroundColor=none;labelBorderColor=none;fontSize=20;fontColor=#333333;strokeColor=#666666;" vertex="1" parent="1">
          <mxGeometry x="80" y="80" width="760" height="240" as="geometry" />
        </mxCell>
        <mxCell id="_pXZU0co5bSJZ4ZsHfcl-1" value="" style="rounded=1;whiteSpace=wrap;html=1;strokeWidth=2;fillWeight=4;hachureGap=8;hachureAngle=45;fillColor=#fff2cc;sketch=0;strokeColor=#d6b656;shadow=1;" vertex="1" parent="1">
          <mxGeometry x="120" y="140" width="240" height="160" as="geometry" />
        </mxCell>
        <mxCell id="_pXZU0co5bSJZ4ZsHfcl-2" value="" style="rounded=1;whiteSpace=wrap;html=1;strokeWidth=2;fillWeight=4;hachureGap=8;hachureAngle=45;fillColor=#dae8fc;sketch=0;shadow=1;strokeColor=#6c8ebf;" vertex="1" parent="1">
          <mxGeometry x="440" y="140" width="160" height="160" as="geometry" />
        </mxCell>
        <mxCell id="_pXZU0co5bSJZ4ZsHfcl-3" value="" style="rounded=1;whiteSpace=wrap;html=1;strokeWidth=2;fillWeight=4;hachureGap=8;hachureAngle=45;fillColor=#f8cecc;sketch=0;shadow=1;strokeColor=#b85450;" vertex="1" parent="1">
          <mxGeometry x="680" y="140" width="120" height="160" as="geometry" />
        </mxCell>
        <mxCell id="_pXZU0co5bSJZ4ZsHfcl-5" value="" style="rounded=1;whiteSpace=wrap;html=1;strokeWidth=2;fillWeight=4;hachureGap=8;hachureAngle=45;fillColor=#d5e8d4;sketch=0;strokeColor=#82b366;shadow=1;" vertex="1" parent="1">
          <mxGeometry x="920" y="140" width="120" height="160" as="geometry" />
        </mxCell>
        <mxCell id="_pXZU0co5bSJZ4ZsHfcl-6" value="DML语句（增删改）" style="text;html=1;align=center;verticalAlign=middle;resizable=0;points=[];autosize=1;strokeColor=none;fillColor=none;fontStyle=1;fontSize=20;" vertex="1" parent="1">
          <mxGeometry x="135" y="180" width="210" height="40" as="geometry" />
        </mxCell>
        <mxCell id="_pXZU0co5bSJZ4ZsHfcl-7" value="commit（提交事务）" style="text;html=1;align=center;verticalAlign=middle;resizable=0;points=[];autosize=1;strokeColor=none;fillColor=none;fontStyle=1;fontSize=20;labelBackgroundColor=none;labelBorderColor=none;" vertex="1" parent="1">
          <mxGeometry x="135" y="220" width="210" height="40" as="geometry" />
        </mxCell>
        <mxCell id="_pXZU0co5bSJZ4ZsHfcl-8" value="buffer pool" style="text;html=1;align=center;verticalAlign=middle;resizable=0;points=[];autosize=1;strokeColor=none;fillColor=none;fontSize=20;fontStyle=1" vertex="1" parent="1">
          <mxGeometry x="175" y="100" width="130" height="40" as="geometry" />
        </mxCell>
        <mxCell id="_pXZU0co5bSJZ4ZsHfcl-10" value="redo log buffer" style="text;html=1;align=center;verticalAlign=middle;resizable=0;points=[];autosize=1;strokeColor=none;fillColor=none;fontSize=20;fontStyle=1" vertex="1" parent="1">
          <mxGeometry x="435" y="100" width="160" height="40" as="geometry" />
        </mxCell>
        <mxCell id="_pXZU0co5bSJZ4ZsHfcl-11" value="page cache" style="text;html=1;align=center;verticalAlign=middle;resizable=0;points=[];autosize=1;strokeColor=none;fillColor=none;fontSize=20;fontStyle=1" vertex="1" parent="1">
          <mxGeometry x="680" y="100" width="130" height="40" as="geometry" />
        </mxCell>
        <mxCell id="_pXZU0co5bSJZ4ZsHfcl-13" value="disk" style="text;html=1;align=center;verticalAlign=middle;resizable=0;points=[];autosize=1;strokeColor=none;fillColor=none;fontSize=20;fontStyle=1" vertex="1" parent="1">
          <mxGeometry x="950" y="100" width="60" height="40" as="geometry" />
        </mxCell>
        <mxCell id="_pXZU0co5bSJZ4ZsHfcl-19" value="" style="rounded=1;whiteSpace=wrap;html=1;strokeWidth=2;fillWeight=4;hachureGap=8;hachureAngle=45;fillColor=#f5f5f5;sketch=1;shadow=1;labelBackgroundColor=none;labelBorderColor=none;fontSize=20;fontColor=#333333;strokeColor=#666666;" vertex="1" parent="1">
          <mxGeometry x="880" y="400" width="200" height="240" as="geometry" />
        </mxCell>
        <mxCell id="_pXZU0co5bSJZ4ZsHfcl-20" value="" style="rounded=1;whiteSpace=wrap;html=1;strokeWidth=2;fillWeight=4;hachureGap=8;hachureAngle=45;fillColor=#f5f5f5;sketch=1;shadow=1;labelBackgroundColor=none;labelBorderColor=none;fontSize=20;fontColor=#333333;strokeColor=#666666;" vertex="1" parent="1">
          <mxGeometry x="80" y="400" width="760" height="240" as="geometry" />
        </mxCell>
        <mxCell id="_pXZU0co5bSJZ4ZsHfcl-21" value="" style="rounded=1;whiteSpace=wrap;html=1;strokeWidth=2;fillWeight=4;hachureGap=8;hachureAngle=45;fillColor=#fff2cc;sketch=0;strokeColor=#d6b656;shadow=1;" vertex="1" parent="1">
          <mxGeometry x="120" y="460" width="240" height="160" as="geometry" />
        </mxCell>
        <mxCell id="_pXZU0co5bSJZ4ZsHfcl-22" value="" style="rounded=1;whiteSpace=wrap;html=1;strokeWidth=2;fillWeight=4;hachureGap=8;hachureAngle=45;fillColor=#dae8fc;sketch=0;shadow=1;strokeColor=#6c8ebf;" vertex="1" parent="1">
          <mxGeometry x="440" y="460" width="160" height="160" as="geometry" />
        </mxCell>
        <mxCell id="_pXZU0co5bSJZ4ZsHfcl-23" value="" style="rounded=1;whiteSpace=wrap;html=1;strokeWidth=2;fillWeight=4;hachureGap=8;hachureAngle=45;fillColor=#f8cecc;sketch=0;shadow=1;strokeColor=#b85450;" vertex="1" parent="1">
          <mxGeometry x="680" y="460" width="120" height="160" as="geometry" />
        </mxCell>
        <mxCell id="_pXZU0co5bSJZ4ZsHfcl-24" value="" style="rounded=1;whiteSpace=wrap;html=1;strokeWidth=2;fillWeight=4;hachureGap=8;hachureAngle=45;fillColor=#d5e8d4;sketch=0;strokeColor=#82b366;shadow=1;" vertex="1" parent="1">
          <mxGeometry x="920" y="460" width="120" height="160" as="geometry" />
        </mxCell>
        <mxCell id="_pXZU0co5bSJZ4ZsHfcl-25" value="DML语句（增删改）" style="text;html=1;align=center;verticalAlign=middle;resizable=0;points=[];autosize=1;strokeColor=none;fillColor=none;fontStyle=1;fontSize=20;" vertex="1" parent="1">
          <mxGeometry x="135" y="500" width="210" height="40" as="geometry" />
        </mxCell>
        <mxCell id="_pXZU0co5bSJZ4ZsHfcl-26" value="commit（提交事务）" style="text;html=1;align=center;verticalAlign=middle;resizable=0;points=[];autosize=1;strokeColor=none;fillColor=none;fontStyle=1;fontSize=20;labelBackgroundColor=none;labelBorderColor=none;" vertex="1" parent="1">
          <mxGeometry x="135" y="540" width="210" height="40" as="geometry" />
        </mxCell>
        <mxCell id="_pXZU0co5bSJZ4ZsHfcl-27" value="buffer pool" style="text;html=1;align=center;verticalAlign=middle;resizable=0;points=[];autosize=1;strokeColor=none;fillColor=none;fontSize=20;fontStyle=1" vertex="1" parent="1">
          <mxGeometry x="175" y="420" width="130" height="40" as="geometry" />
        </mxCell>
        <mxCell id="_pXZU0co5bSJZ4ZsHfcl-28" value="redo log buffer" style="text;html=1;align=center;verticalAlign=middle;resizable=0;points=[];autosize=1;strokeColor=none;fillColor=none;fontSize=20;fontStyle=1" vertex="1" parent="1">
          <mxGeometry x="435" y="420" width="160" height="40" as="geometry" />
        </mxCell>
        <mxCell id="_pXZU0co5bSJZ4ZsHfcl-29" value="page cache" style="text;html=1;align=center;verticalAlign=middle;resizable=0;points=[];autosize=1;strokeColor=none;fillColor=none;fontSize=20;fontStyle=1" vertex="1" parent="1">
          <mxGeometry x="680" y="420" width="130" height="40" as="geometry" />
        </mxCell>
        <mxCell id="_pXZU0co5bSJZ4ZsHfcl-30" value="disk" style="text;html=1;align=center;verticalAlign=middle;resizable=0;points=[];autosize=1;strokeColor=none;fillColor=none;fontSize=20;fontStyle=1" vertex="1" parent="1">
          <mxGeometry x="950" y="420" width="60" height="40" as="geometry" />
        </mxCell>
        <mxCell id="_pXZU0co5bSJZ4ZsHfcl-31" value="" style="rounded=1;whiteSpace=wrap;html=1;strokeWidth=2;fillWeight=4;hachureGap=8;hachureAngle=45;fillColor=#f5f5f5;sketch=1;shadow=1;labelBackgroundColor=none;labelBorderColor=none;fontSize=20;fontColor=#333333;strokeColor=#666666;" vertex="1" parent="1">
          <mxGeometry x="880" y="720" width="200" height="240" as="geometry" />
        </mxCell>
        <mxCell id="_pXZU0co5bSJZ4ZsHfcl-32" value="" style="rounded=1;whiteSpace=wrap;html=1;strokeWidth=2;fillWeight=4;hachureGap=8;hachureAngle=45;fillColor=#f5f5f5;sketch=1;shadow=1;labelBackgroundColor=none;labelBorderColor=none;fontSize=20;fontColor=#333333;strokeColor=#666666;" vertex="1" parent="1">
          <mxGeometry x="80" y="720" width="760" height="240" as="geometry" />
        </mxCell>
        <mxCell id="_pXZU0co5bSJZ4ZsHfcl-33" value="" style="rounded=1;whiteSpace=wrap;html=1;strokeWidth=2;fillWeight=4;hachureGap=8;hachureAngle=45;fillColor=#fff2cc;sketch=0;strokeColor=#d6b656;shadow=1;" vertex="1" parent="1">
          <mxGeometry x="120" y="780" width="240" height="160" as="geometry" />
        </mxCell>
        <mxCell id="_pXZU0co5bSJZ4ZsHfcl-34" value="" style="rounded=1;whiteSpace=wrap;html=1;strokeWidth=2;fillWeight=4;hachureGap=8;hachureAngle=45;fillColor=#dae8fc;sketch=0;shadow=1;strokeColor=#6c8ebf;" vertex="1" parent="1">
          <mxGeometry x="440" y="780" width="160" height="160" as="geometry" />
        </mxCell>
        <mxCell id="_pXZU0co5bSJZ4ZsHfcl-35" value="" style="rounded=1;whiteSpace=wrap;html=1;strokeWidth=2;fillWeight=4;hachureGap=8;hachureAngle=45;fillColor=#f8cecc;sketch=0;shadow=1;strokeColor=#b85450;" vertex="1" parent="1">
          <mxGeometry x="680" y="780" width="120" height="160" as="geometry" />
        </mxCell>
        <mxCell id="_pXZU0co5bSJZ4ZsHfcl-36" value="" style="rounded=1;whiteSpace=wrap;html=1;strokeWidth=2;fillWeight=4;hachureGap=8;hachureAngle=45;fillColor=#d5e8d4;sketch=0;strokeColor=#82b366;shadow=1;" vertex="1" parent="1">
          <mxGeometry x="920" y="780" width="120" height="160" as="geometry" />
        </mxCell>
        <mxCell id="_pXZU0co5bSJZ4ZsHfcl-37" value="DML语句（增删改）" style="text;html=1;align=center;verticalAlign=middle;resizable=0;points=[];autosize=1;strokeColor=none;fillColor=none;fontStyle=1;fontSize=20;" vertex="1" parent="1">
          <mxGeometry x="135" y="820" width="210" height="40" as="geometry" />
        </mxCell>
        <mxCell id="_pXZU0co5bSJZ4ZsHfcl-38" value="commit（提交事务）" style="text;html=1;align=center;verticalAlign=middle;resizable=0;points=[];autosize=1;strokeColor=none;fillColor=none;fontStyle=1;fontSize=20;labelBackgroundColor=none;labelBorderColor=none;" vertex="1" parent="1">
          <mxGeometry x="135" y="860" width="210" height="40" as="geometry" />
        </mxCell>
        <mxCell id="_pXZU0co5bSJZ4ZsHfcl-39" value="buffer pool" style="text;html=1;align=center;verticalAlign=middle;resizable=0;points=[];autosize=1;strokeColor=none;fillColor=none;fontSize=20;fontStyle=1" vertex="1" parent="1">
          <mxGeometry x="175" y="740" width="130" height="40" as="geometry" />
        </mxCell>
        <mxCell id="_pXZU0co5bSJZ4ZsHfcl-40" value="redo log buffer" style="text;html=1;align=center;verticalAlign=middle;resizable=0;points=[];autosize=1;strokeColor=none;fillColor=none;fontSize=20;fontStyle=1" vertex="1" parent="1">
          <mxGeometry x="435" y="740" width="160" height="40" as="geometry" />
        </mxCell>
        <mxCell id="_pXZU0co5bSJZ4ZsHfcl-41" value="page cache" style="text;html=1;align=center;verticalAlign=middle;resizable=0;points=[];autosize=1;strokeColor=none;fillColor=none;fontSize=20;fontStyle=1" vertex="1" parent="1">
          <mxGeometry x="680" y="740" width="130" height="40" as="geometry" />
        </mxCell>
        <mxCell id="_pXZU0co5bSJZ4ZsHfcl-42" value="disk" style="text;html=1;align=center;verticalAlign=middle;resizable=0;points=[];autosize=1;strokeColor=none;fillColor=none;fontSize=20;fontStyle=1" vertex="1" parent="1">
          <mxGeometry x="950" y="740" width="60" height="40" as="geometry" />
        </mxCell>
        <mxCell id="_pXZU0co5bSJZ4ZsHfcl-43" value="x=0" style="text;html=1;align=center;verticalAlign=middle;resizable=0;points=[];autosize=1;strokeColor=none;fillColor=none;fontSize=27;fontStyle=1" vertex="1" parent="1">
          <mxGeometry x="-45" y="155" width="70" height="50" as="geometry" />
        </mxCell>
        <mxCell id="_pXZU0co5bSJZ4ZsHfcl-44" value="&lt;span style=&quot;caret-color: rgb(51, 51, 51); color: rgb(51, 51, 51); font-family: &amp;quot;Lucida Console&amp;quot;, Consolas, Courier, monospace; font-size: 20px; orphans: 4; text-align: left; text-size-adjust: auto;&quot;&gt;innodb_flush_log_at_trx_commit = X&lt;/span&gt;" style="text;html=1;align=center;verticalAlign=middle;resizable=0;points=[];autosize=1;strokeColor=none;fillColor=none;fontSize=20;fontStyle=1;labelBackgroundColor=none;shadow=0;" vertex="1" parent="1">
          <mxGeometry x="-45" y="-80" width="430" height="40" as="geometry" />
        </mxCell>
        <mxCell id="_pXZU0co5bSJZ4ZsHfcl-47" value="x=1" style="text;html=1;align=center;verticalAlign=middle;resizable=0;points=[];autosize=1;strokeColor=none;fillColor=none;fontSize=27;fontStyle=1" vertex="1" parent="1">
          <mxGeometry x="-45" y="475" width="70" height="50" as="geometry" />
        </mxCell>
        <mxCell id="_pXZU0co5bSJZ4ZsHfcl-48" value="x=2" style="text;html=1;align=center;verticalAlign=middle;resizable=0;points=[];autosize=1;strokeColor=none;fillColor=none;fontSize=27;fontStyle=1" vertex="1" parent="1">
          <mxGeometry x="-45" y="795" width="70" height="50" as="geometry" />
        </mxCell>
        <mxCell id="_pXZU0co5bSJZ4ZsHfcl-49" value="" style="endArrow=none;dashed=1;html=1;dashPattern=1 3;strokeWidth=2;rounded=0;fontSize=27;" edge="1" parent="1">
          <mxGeometry width="50" height="50" relative="1" as="geometry">
            <mxPoint x="640" y="1040" as="sourcePoint" />
            <mxPoint x="640" as="targetPoint" />
          </mxGeometry>
        </mxCell>
        <mxCell id="_pXZU0co5bSJZ4ZsHfcl-50" value="" style="shape=curlyBracket;whiteSpace=wrap;html=1;rounded=1;shadow=0;labelBackgroundColor=none;labelBorderColor=none;sketch=0;fontSize=29;rotation=90;strokeWidth=2;fontStyle=1" vertex="1" parent="1">
          <mxGeometry x="350" y="-220" width="20" height="530" as="geometry" />
        </mxCell>
        <mxCell id="_pXZU0co5bSJZ4ZsHfcl-51" value="" style="shape=curlyBracket;whiteSpace=wrap;html=1;rounded=1;shadow=0;labelBackgroundColor=none;labelBorderColor=none;sketch=0;fontSize=29;rotation=90;strokeWidth=2;fontStyle=1" vertex="1" parent="1">
          <mxGeometry x="730" y="-35" width="20" height="160" as="geometry" />
        </mxCell>
        <mxCell id="_pXZU0co5bSJZ4ZsHfcl-54" value="用户空间" style="text;html=1;align=center;verticalAlign=middle;resizable=0;points=[];autosize=1;strokeColor=none;fillColor=none;fontSize=21;strokeWidth=2;fontStyle=1" vertex="1" parent="1">
          <mxGeometry x="305" y="-5" width="110" height="40" as="geometry" />
        </mxCell>
        <mxCell id="_pXZU0co5bSJZ4ZsHfcl-55" value="内核空间" style="text;html=1;align=center;verticalAlign=middle;resizable=0;points=[];autosize=1;strokeColor=none;fillColor=none;fontSize=21;strokeWidth=2;fontStyle=1" vertex="1" parent="1">
          <mxGeometry x="690" y="-5" width="110" height="40" as="geometry" />
        </mxCell>
        <mxCell id="_pXZU0co5bSJZ4ZsHfcl-56" value="" style="shape=flexArrow;endArrow=classic;html=1;rounded=1;fontSize=21;fillColor=#dae8fc;strokeColor=#6c8ebf;sketch=1;shadow=1;fillStyle=hachure;" edge="1" parent="1">
          <mxGeometry width="50" height="50" relative="1" as="geometry">
            <mxPoint x="340" y="199.72" as="sourcePoint" />
            <mxPoint x="470" y="199.72" as="targetPoint" />
          </mxGeometry>
        </mxCell>
        <mxCell id="_pXZU0co5bSJZ4ZsHfcl-59" value="" style="shape=flexArrow;endArrow=classic;html=1;rounded=1;fontSize=21;fillColor=#dae8fc;strokeColor=#6c8ebf;sketch=1;shadow=1;fillStyle=hachure;" edge="1" parent="1">
          <mxGeometry width="50" height="50" relative="1" as="geometry">
            <mxPoint x="340" y="239.6699999999998" as="sourcePoint" />
            <mxPoint x="470" y="239.6699999999998" as="targetPoint" />
          </mxGeometry>
        </mxCell>
        <mxCell id="_pXZU0co5bSJZ4ZsHfcl-60" value="" style="shape=flexArrow;endArrow=classic;html=1;rounded=1;fontSize=21;fillColor=#dae8fc;strokeColor=#6c8ebf;sketch=1;shadow=1;fillStyle=hachure;" edge="1" parent="1">
          <mxGeometry width="50" height="50" relative="1" as="geometry">
            <mxPoint x="340" y="521.6699999999997" as="sourcePoint" />
            <mxPoint x="470" y="521.6699999999997" as="targetPoint" />
          </mxGeometry>
        </mxCell>
        <mxCell id="_pXZU0co5bSJZ4ZsHfcl-61" value="" style="shape=flexArrow;endArrow=classic;html=1;rounded=1;fontSize=21;fillColor=#dae8fc;strokeColor=#6c8ebf;sketch=1;shadow=1;fillStyle=hachure;" edge="1" parent="1">
          <mxGeometry width="50" height="50" relative="1" as="geometry">
            <mxPoint x="340" y="839.6699999999997" as="sourcePoint" />
            <mxPoint x="470" y="840" as="targetPoint" />
          </mxGeometry>
        </mxCell>
        <mxCell id="_pXZU0co5bSJZ4ZsHfcl-62" value="" style="shape=flexArrow;endArrow=classic;html=1;rounded=1;fontSize=21;fillColor=#d5e8d4;strokeColor=#82b366;sketch=1;shadow=1;fillStyle=hachure;" edge="1" parent="1">
          <mxGeometry width="50" height="50" relative="1" as="geometry">
            <mxPoint x="340" y="559.6399999999998" as="sourcePoint" />
            <mxPoint x="960" y="560" as="targetPoint" />
          </mxGeometry>
        </mxCell>
        <mxCell id="_pXZU0co5bSJZ4ZsHfcl-63" value="" style="shape=flexArrow;endArrow=classic;html=1;rounded=1;fontSize=21;fillColor=#f8cecc;strokeColor=#b85450;sketch=1;shadow=1;fillStyle=hachure;" edge="1" parent="1">
          <mxGeometry width="50" height="50" relative="1" as="geometry">
            <mxPoint x="340" y="879.6699999999997" as="sourcePoint" />
            <mxPoint x="720" y="879.67" as="targetPoint" />
          </mxGeometry>
        </mxCell>
      </root>
    </mxGraphModel>
  </diagram>
</mxfile>
